<svg width="22" height="16" viewBox="0 0 22 16" fill="none" xmlns="http://www.w3.org/2000/svg">
<path d="M11.1443 12.8083C12.3943 12.8083 13.4568 12.3708 14.3318 11.4958C15.2068 10.6208 15.6443 9.5583 15.6443 8.3083C15.6443 7.0583 15.2068 5.99585 14.3318 5.12085C13.4568 4.24585 12.3943 3.80835 11.1443 3.80835C9.8943 3.80835 8.83184 4.24585 7.95684 5.12085C7.08184 5.99585 6.64434 7.0583 6.64434 8.3083C6.64434 9.5583 7.08184 10.6208 7.95684 11.4958C8.83184 12.3708 9.8943 12.8083 11.1443 12.8083ZM11.1443 11.0083C10.3943 11.0083 9.7568 10.7458 9.2318 10.2208C8.70684 9.6959 8.44434 9.0583 8.44434 8.3083C8.44434 7.5583 8.70684 6.9208 9.2318 6.3958C9.7568 5.87085 10.3943 5.60835 11.1443 5.60835C11.8943 5.60835 12.5318 5.87085 13.0568 6.3958C13.5818 6.9208 13.8443 7.5583 13.8443 8.3083C13.8443 9.0583 13.5818 9.6959 13.0568 10.2208C12.5318 10.7458 11.8943 11.0083 11.1443 11.0083ZM11.1443 15.8083C8.82767 15.8083 6.711 15.1959 4.79434 13.9708C2.87767 12.7458 1.42767 11.0917 0.444336 9.0083C0.394336 8.925 0.360996 8.8209 0.344336 8.6958C0.327666 8.5708 0.319336 8.4417 0.319336 8.3083C0.319336 8.175 0.327666 8.0458 0.344336 7.9208C0.360996 7.7958 0.394336 7.6917 0.444336 7.6083C1.42767 5.52502 2.87767 3.87085 4.79434 2.64585C6.711 1.42085 8.82767 0.80835 11.1443 0.80835C13.461 0.80835 15.5777 1.42085 17.4943 2.64585C19.411 3.87085 20.861 5.52502 21.8443 7.6083C21.8943 7.6917 21.9277 7.7958 21.9443 7.9208C21.961 8.0458 21.9693 8.175 21.9693 8.3083C21.9693 8.4417 21.961 8.5708 21.9443 8.6958C21.9277 8.8209 21.8943 8.925 21.8443 9.0083C20.861 11.0917 19.411 12.7458 17.4943 13.9708C15.5777 15.1959 13.461 15.8083 11.1443 15.8083ZM11.1443 13.8083C13.0277 13.8083 14.7568 13.3125 16.3318 12.3208C17.9068 11.3292 19.111 9.9917 19.9443 8.3083C19.111 6.625 17.9068 5.28752 16.3318 4.29585C14.7568 3.30418 13.0277 2.80835 11.1443 2.80835C9.261 2.80835 7.53184 3.30418 5.95684 4.29585C4.38184 5.28752 3.17767 6.625 2.34434 8.3083C3.17767 9.9917 4.38184 11.3292 5.95684 12.3208C7.53184 13.3125 9.261 13.8083 11.1443 13.8083Z" fill="#A8A8A8"/>
</svg>
