<svg width="22" height="15" viewBox="0 0 22 15" fill="none" xmlns="http://www.w3.org/2000/svg">
<path d="M16.9032 14.0768C17.0202 14.1939 17.1843 14.2564 17.3325 14.2564C17.6447 14.2564 17.9337 13.9753 17.9337 13.6552C17.9337 13.499 17.8713 13.3429 17.7541 13.2258L4.69225 0.171731C4.57515 0.0546274 4.41904 0 4.26288 0C3.95058 0 3.66167 0.281063 3.66167 0.593364C3.66167 0.757286 3.71634 0.913475 3.83344 1.02277L16.9032 14.0768ZM10.8289 0.616754C9.47044 0.616754 8.24467 0.850999 7.09699 1.23355L8.11976 2.25632C8.98637 1.99868 9.8608 1.85034 10.8289 1.85034C16.1224 1.85034 20.2837 6.37867 20.2837 7.30776C20.2837 7.94018 18.9174 9.64218 16.7548 10.9694L17.7151 11.9298C20.1823 10.3293 21.65 8.22901 21.65 7.30776C21.65 5.70725 17.2934 0.616754 10.8289 0.616754ZM10.8289 13.9987C12.2811 13.9987 13.6084 13.7411 14.8186 13.3273L13.7958 12.3045C12.8667 12.5934 11.8829 12.7652 10.8289 12.7652C5.53548 12.7652 1.36631 8.40863 1.36631 7.30776C1.36631 6.76126 2.81848 4.94212 5.11388 3.56019L4.14574 2.59205C1.54589 4.20037 0 6.36305 0 7.30776C0 8.90047 4.44242 13.9987 10.8289 13.9987ZM14.8341 9.01757C15.0762 8.49449 15.2089 7.90894 15.2089 7.30776C15.2089 4.86402 13.257 2.93559 10.8289 2.93559C10.2122 2.93559 9.63437 3.06831 9.11129 3.29474L14.8341 9.01757ZM10.8289 11.6799C11.516 11.6799 12.164 11.5082 12.7418 11.2271L6.89398 5.37152C6.5973 5.94927 6.44115 6.6051 6.44115 7.30776C6.44115 9.68903 8.3852 11.6799 10.8289 11.6799Z" fill="#A8A8A8"/>
</svg>
