<svg width="18" height="20" viewBox="0 0 18 20" fill="none" xmlns="http://www.w3.org/2000/svg">
<path d="M13.4438 6.55894C13.3107 6.09632 13.1238 5.68758 12.883 5.3327C12.6422 4.97148 12.3475 4.6673 11.999 4.42015C11.6567 4.16667 11.2638 3.97338 10.8202 3.8403C10.383 3.70723 9.89819 3.64069 9.36587 3.64069C8.37094 3.64069 7.49642 3.88783 6.7423 4.38213C5.99452 4.87643 5.4115 5.59569 4.99325 6.53992C4.575 7.47782 4.36587 8.62484 4.36587 9.98099C4.36587 11.3371 4.57183 12.4905 4.98374 13.4411C5.39566 14.3916 5.97867 15.1172 6.73279 15.6179C7.48691 16.1122 8.37728 16.3593 9.4039 16.3593C10.3355 16.3593 11.1308 16.1945 11.7898 15.865C12.4552 15.5292 12.9622 15.057 13.3107 14.4487C13.6656 13.8403 13.8431 13.121 13.8431 12.2909L14.6796 12.4144H9.66055V9.31559H17.8069V11.7681C17.8069 13.4791 17.4457 14.9493 16.7233 16.1787C16.0009 17.4018 15.0059 18.346 13.7385 19.0114C12.4711 19.6705 11.0199 20 9.38488 20C7.55979 20 5.9565 19.5976 4.575 18.7928C3.19351 17.9816 2.11619 16.8314 1.34306 15.3422C0.576268 13.8466 0.192871 12.0722 0.192871 10.019C0.192871 8.44106 0.421008 7.03422 0.877282 5.79848C1.33989 4.5564 1.98628 3.50444 2.81644 2.64259C3.64661 1.78074 4.61302 1.12484 5.71568 0.674905C6.81835 0.224968 8.0129 0 9.29933 0C10.402 0 11.4286 0.161597 12.3792 0.484791C13.3298 0.801648 14.1726 1.25158 14.9077 1.8346C15.6491 2.41762 16.2543 3.11153 16.7233 3.91635C17.1922 4.71483 17.4932 5.59569 17.6263 6.55894H13.4438Z" fill="#29ABE2"/>
</svg>
